<svg width="27" height="28" viewBox="0 0 27 28" fill="none" xmlns="http://www.w3.org/2000/svg">
<path d="M13.3322 8.97412C11.9696 8.97412 10.6628 9.51542 9.69928 10.4789C8.73576 11.4425 8.19446 12.7493 8.19446 14.1119C8.19446 15.4745 8.73576 16.7813 9.69928 17.7449C10.6628 18.7084 11.9696 19.2497 13.3322 19.2497C14.6949 19.2497 16.0017 18.7084 16.9652 17.7449C17.9287 16.7813 18.47 15.4745 18.47 14.1119C18.47 12.7493 17.9287 11.4425 16.9652 10.4789C16.0017 9.51542 14.6949 8.97412 13.3322 8.97412ZM13.3322 17.4486C12.447 17.4486 11.598 17.0969 10.9721 16.471C10.3461 15.845 9.99446 14.996 9.99446 14.1108C9.99446 13.2256 10.3461 12.3766 10.9721 11.7506C11.598 11.1247 12.447 10.773 13.3322 10.773C14.2175 10.773 15.0664 11.1247 15.6924 11.7506C16.3184 12.3766 16.67 13.2256 16.67 14.1108C16.67 14.996 16.3184 15.845 15.6924 16.471C15.0664 17.0969 14.2175 17.4486 13.3322 17.4486Z" fill="white"/>
<path d="M18.6734 9.98296C19.3349 9.98296 19.8711 9.44669 19.8711 8.78518C19.8711 8.12367 19.3349 7.5874 18.6734 7.5874C18.0118 7.5874 17.4756 8.12367 17.4756 8.78518C17.4756 9.44669 18.0118 9.98296 18.6734 9.98296Z" fill="white"/>
<path d="M22.8144 7.56732C22.5572 6.90308 22.1641 6.29986 21.6603 5.79628C21.1566 5.29269 20.5532 4.89985 19.8888 4.64288C19.1114 4.35105 18.2902 4.19326 17.46 4.17621C16.39 4.12954 16.0511 4.11621 13.3377 4.11621C10.6244 4.11621 10.2766 4.11621 9.21551 4.17621C8.38594 4.19239 7.56524 4.35021 6.78884 4.64288C6.12433 4.89955 5.5208 5.29229 5.01699 5.79591C4.51318 6.29953 4.12021 6.9029 3.86329 7.56732C3.5714 8.34467 3.41397 9.16603 3.39773 9.99621C3.34995 11.0651 3.33551 11.404 3.33551 14.1184C3.33551 16.8318 3.33551 17.1773 3.39773 18.2407C3.4144 19.0718 3.57107 19.8918 3.86329 20.6707C4.12093 21.3348 4.51428 21.938 5.01822 22.4415C5.52215 22.9451 6.12558 23.338 6.78995 23.5951C7.56488 23.8987 8.38592 24.0677 9.21773 24.0951C10.2877 24.1418 10.6266 24.1562 13.34 24.1562C16.0533 24.1562 16.4011 24.1562 17.4622 24.0951C18.2923 24.0782 19.1135 23.9208 19.8911 23.6295C20.5552 23.372 21.1584 22.9788 21.6621 22.4751C22.1659 21.9713 22.5591 21.3682 22.8166 20.704C23.1088 19.9262 23.2655 19.1062 23.2822 18.2751C23.33 17.2062 23.3444 16.8673 23.3444 14.1529C23.3444 11.4384 23.3444 11.094 23.2822 10.0307C23.2692 9.18874 23.111 8.35538 22.8144 7.56732ZM21.4611 18.1584C21.4539 18.7988 21.337 19.4331 21.1155 20.034C20.9487 20.4661 20.6932 20.8584 20.3656 21.1859C20.038 21.5133 19.6455 21.7685 19.2133 21.9351C18.6191 22.1556 17.9915 22.2725 17.3577 22.2807C16.3022 22.3295 16.0044 22.3418 13.2977 22.3418C10.5888 22.3418 10.3122 22.3418 9.23662 22.2807C8.60321 22.2729 7.97587 22.156 7.38218 21.9351C6.9485 21.7695 6.5544 21.5148 6.22539 21.1873C5.89637 20.8598 5.63977 20.4669 5.47218 20.034C5.25378 19.4396 5.13697 18.8127 5.12662 18.1795C5.07884 17.124 5.06773 16.8262 5.06773 14.1195C5.06773 11.4118 5.06773 11.1351 5.12662 10.0584C5.1338 9.41846 5.25068 8.78445 5.47218 8.18399C5.81107 7.30732 6.50551 6.61732 7.38218 6.28177C7.97617 6.06192 8.60332 5.94506 9.23662 5.93621C10.2933 5.88843 10.59 5.8751 13.2977 5.8751C16.0055 5.8751 16.2833 5.8751 17.3577 5.93621C17.9915 5.94384 18.6192 6.06073 19.2133 6.28177C19.6454 6.44874 20.0379 6.70421 20.3655 7.0318C20.6931 7.35939 20.9485 7.75185 21.1155 8.18399C21.3339 8.77838 21.4507 9.40528 21.4611 10.0384C21.5088 11.0951 21.5211 11.3918 21.5211 14.0995C21.5211 16.8062 21.5211 17.0973 21.4733 18.1595H21.4611V18.1584Z" fill="white"/>
</svg>
