<svg width="28" height="28" viewBox="0 0 28 28" fill="none" xmlns="http://www.w3.org/2000/svg">
<path d="M13.9889 2.99951C7.85774 2.99951 2.88885 7.96951 2.88885 14.0995C2.88885 18.8017 5.81441 22.8217 9.94441 24.4395C9.84663 23.5617 9.75997 22.2106 9.98219 21.2528C10.1844 20.3862 11.2844 15.7351 11.2844 15.7351C11.2844 15.7351 10.9522 15.0695 10.9522 14.0862C10.9522 12.544 11.8466 11.3917 12.9611 11.3917C13.9089 11.3917 14.3655 12.1028 14.3655 12.9551C14.3655 13.9084 13.7589 15.3317 13.4466 16.6517C13.1855 17.7562 14.0011 18.6573 15.09 18.6573C17.0622 18.6573 18.58 16.5773 18.58 13.574C18.58 10.9162 16.67 9.0584 13.9433 9.0584C10.7844 9.0584 8.92997 11.4273 8.92997 13.8751C8.92997 14.8284 9.29774 15.8517 9.75663 16.4084C9.79563 16.4503 9.82317 16.5016 9.8366 16.5572C9.85002 16.6129 9.84889 16.6711 9.8333 16.7262C9.74886 17.0762 9.56108 17.8306 9.52552 17.9851C9.47663 18.1884 9.36441 18.2317 9.1533 18.134C7.76774 17.4884 6.90108 15.4617 6.90108 13.8328C6.90108 10.3317 9.44441 7.11618 14.2355 7.11618C18.0866 7.11618 21.0789 9.85951 21.0789 13.5273C21.0789 17.354 18.6666 20.4306 15.3189 20.4306C14.1933 20.4306 13.1366 19.8473 12.7744 19.1573L12.0822 21.7951C11.8322 22.7595 11.1555 23.9684 10.7033 24.7062C11.7679 25.0348 12.8758 25.2015 13.99 25.2006C20.12 25.2006 25.09 20.2306 25.09 14.1006C25.09 7.97062 20.1189 2.99951 13.9889 2.99951Z" fill="white"/>
</svg>
