<svg width="375" height="183" viewBox="0 0 375 183" fill="none" xmlns="http://www.w3.org/2000/svg">
<g style="mix-blend-mode:overlay">
<path d="M374.23 0C367.961 5.89396 360.623 10.534 352.61 13.67C338 19.32 321.53 20.4 308.27 28.73C290.8 39.73 282.68 60.8 278.27 80.94C273.86 101.08 271.89 122.3 262 140.38C241.42 177.89 190.25 190.78 149.68 177.19C122.68 168.12 100.11 149.87 81.9202 127.62C72.8504 116.423 64.7985 104.439 57.8602 91.81C42.2202 63.56 30.7502 32.45 9.30017 8.32C6.67985 5.37768 3.88124 2.59911 0.920166 0L374.23 0Z" fill="#F3C730" fill-opacity="0.3"/>
</g>
</svg>
